<svg xmlns="http://www.w3.org/2000/svg" width="3337.212" height="2513.661"><path d="M267.312 2056.57c332.466 193.322 678.711 164.041 1032.756 56.814 290.887-88.092 518.773-166.682 801.75-15.8 235.678 125.667 555.266 381.627 840.984 286.612 361.837-120.333 427.031-702.879 381.806-1017.92-73.573-512.187-463.994-1159.394-988.913-1309.748C1599.452-154.352 801.3 253.775 321.445 800.41c-275.44 313.774-533.308 977.547-54.133 1256.16" fill="#ebf0f7"/><path d="M1581.53 453.573c23.882-32.345 19.434-76.159-9.973-97.88-29.408-21.719-72.584-13.106-96.467 19.228-23.911 32.331-19.435 76.145 9.944 97.866 29.408 21.719 72.612 13.12 96.495-19.214" fill="#6485c1"/><path d="M1371.583 555.709l162.131-124.08-24.07-31.452-162.13 124.079 24.07 31.453M754.153 489.793l32.89-22.052-91.003-135.666-32.867 22.052 90.98 135.666" fill="#6485c1"/><path d="M3114.162 200.426l-636.236-65.778-617.593 65.736 626.914 77.058 626.915-77.016" fill="#f472b6"/><path d="M1091.886 689.947l29.007 5.052c33.15 5.786 65.032-16.627 70.833-49.8l11.473-65.827c5.776-33.171-16.627-65.053-49.803-70.839l-29.007-5.055c-33.176-5.786-65.058 16.627-70.833 49.814l-11.473 65.814c-5.776 33.173 16.627 65.052 49.803 70.84" fill="#4e6bb9"/><path d="M1058.758 689.94l28.985 5.052c33.199 5.786 65.061-16.625 70.843-49.798l11.486-65.827c5.781-33.173-16.625-65.054-49.824-70.84l-28.985-5.055c-33.173-5.786-65.061 16.628-70.843 49.814l-11.486 65.814c-5.781 33.173 16.651 65.053 49.824 70.84" fill="#5d80c8"/><path d="M707.47 1438.731l-10.872-88.252a721.822 721.822 0 0122.239-286.668l74.78-262.373C831.9 667.173 963.68 581.987 1101.819 602.199l46.568 6.812c162.826 23.827 269.587 182.882 230.01 342.614l-67.68 273.041c-19.018 76.759-25.403 156.105-18.632 234.892 14.78 171.947 89.807 401.893 181.623 518.466l-717.137-77.4-49.101-461.893" fill="#5d80c8"/><path d="M646.26 1438.732l-10.88-88.254a722.813 722.813 0 0122.225-286.668l74.8-262.373c38.285-134.265 170.05-219.452 308.196-199.24l46.575 6.815c162.825 23.825 269.61 182.878 230.016 342.613l-67.682 273.04c-19.034 76.76-25.415 156.106-18.652 234.892 14.78 171.949 109.676 446.187 201.492 562.746l-737.005-121.677-49.084-461.894" fill="#86ace2"/><path d="M2085.24 1826.943c0 207.494 145.13 375.694 324.138 375.694 179.007 0 324.103-168.2 324.103-375.694 0-207.495-145.096-375.694-324.103-375.694-179.008 0-324.139 168.2-324.139 375.694" fill="#262654"/><path d="M2702.21 1887.943c38.508-163.614-45.426-320.759-187.421-351-142.032-30.239-288.333 77.894-326.841 241.505-38.508 163.615 45.426 320.763 187.421 351.001 142.031 30.242 288.333-77.89 326.841-241.506" fill="#434395"/><path d="M2315.853 1820.37c0 88.227 59.367 159.749 132.563 159.749 73.23 0 132.562-71.522 132.562-159.748 0-88.213-59.332-159.734-132.562-159.734-73.196 0-132.563 71.521-132.563 159.734" fill="#d5d5d5"/><path d="M2758.119 1480.251h120.497v-156.307c0-34.172-27.72-61.878-61.875-61.878h-58.622v218.185" fill="#db2777"/><path d="M2587.76 1698.425s-195.186-671.506-687.668-513.691c-499.903 160.185-140.866 662.823-99.431 668.358l787.098-154.667" fill="#4e6bb9"/><path d="M1939.788 1285.65c-268.156 85.935-289.127 270.4-244.577 423.83-80.553-162.631-126.03-418.709 204.866-524.75 443.746-142.187 646.107 388.842 681.836 495.387-82.922-185.173-283.84-509.28-642.125-394.467" fill="#5d80c8"/><path d="M2957.834 1726.052s-63.037-443.598-329.432-615.09c-67.505-43.456-122.887-103.28-159.405-174.79 0 0-546.82-129.798-900.316 113.244 0 0 324.487 357.65 89.738 603.45 0 0-52.011 141.948-368.477 140.014l-72.011 2.212 190.466 213.347a43.864 43.864 0 0041.17 13.827l1508.267-296.214" fill="#86ace2"/><path d="M1157.727 627.663l-130.224 477.134c-15.786 76.505-24.817 155.134-26.966 234.358l-9.364 345.656-192.446-137.189 20.263-321.399c4.887-77.84 16.476-154.706 34.539-229.12l132.143-397.575s87.678-3.305 172.055 28.135" fill="#dfecfd"/><path d="M1309.917 1780.77c18.087 50.293 67.797 82.025 121.027 77.293 65.673-5.826 161.39-20.667 270.309-57.454 139.69-47.188 232.92-163.266 230.613-310.693-2.974-187-77.417-418.03-219.567-520.602l-151.921 71.815s212.374 254.998 178.688 445.786c-33.686 190.8-214.954 295.722-429.15 293.855" fill="#6485c1"/><path d="M2359.521 1798.382c-4.085 56.55 31.32 104.843 79.049 107.87 47.728 3.012 89.771-40.39 93.857-96.935 4.085-56.546-31.286-104.84-79.049-107.852-47.762-3.027-89.772 40.372-93.857 96.917" fill="#fff"/><path d="M1560.387 1036.85c4.885 49.295 213.474 68.907 465.897 43.813 252.388-25.104 453.026-85.413 448.107-134.705-4.886-49.295-213.475-68.92-465.897-43.813-252.389 25.094-453.026 85.4-448.107 134.705" fill="#dfecfd"/><path d="M2957.834 1726.052s-122.557-628.544-582.495-489.57c-369.98 111.8-246.03 638.704-204.604 644.224l787.1-154.654" fill="#4e6bb9"/><path d="M2375.365 1236.475c272.724-82.414 426.825 105.054 507.076 271.32-89.726-124.654-229.759-222.626-440.893-158.827-260.861 78.826-276.196 363.948-248.023 527.253l-22.784 4.48c-41.41-5.518-165.385-532.427 204.624-644.226M1659.785 997.506c0 21.256 17.262 38.467 38.51 38.44 139.822-.185 668.637-21.654 795.554-190.905l-187.994-33.748L2274 761.347c-.575-25.188-21.992-44.838-47.126-43.305L1654.28 858.854l5.506 138.652" fill="#5d80c8"/><path d="M3114.162 200.426V747.25l-626.915 107.72V268.39l626.915-67.964" fill="#4b5563"/><path d="M2487.242 269.499V854.97l-626.906-104.867v-549.72l626.906 69.115" fill="#374151"/><path d="M2487.96 374.639l-.608 65.402-627.056-92.28-.978-58.197 628.642 85.075" fill="#f2f2f2"/><path d="M2298.745 831.382c13.066-14.532 6.108-105.775-17.868-114.173-110.471-38.655-405.27-56.96-566.405 91.2 0 0-157.77 4.665-139.837 144.825 4.083 32.054 557.357 63.602 724.11-121.852" fill="#262654"/><path d="M2286.187 769.759c18.365-17.576 10.014-48.894-13.994-57.294-110.452-38.642-392.91-116.229-554.053 31.932 0 0-136.646 115.974-136.776 145.012-.163 32.307 479.124 96.429 704.823-119.65" fill="#434395"/><path d="M2214.342 983.01l699.128-122.572c21.691-3.8 36.323-24.669 32.519-46.36-3.804-21.695-24.654-36.323-46.345-32.522l-699.128 122.56c-21.692 3.816-36.323 24.669-32.555 46.36 3.84 21.695 24.69 36.334 46.381 32.533" fill="#5d80c8"/><path d="M1483.64 621.04L825.739 513.626v-80.093s177.392-41.508 104.956-124.282c-77.345-88.373 151.905-85.612 216.451-3.906 36.687 46.454 68.16 96.762 118.252 128.334 54.588 34.428 90.834 65.799 169.806 87.974 44.217 12.426 48.438 99.387 48.438 99.387" fill="#6485c1"/><path d="M555.68 473.052l238.585 46.159c12.687 2.448 25.069-5.908 27.517-18.595 2.448-12.664-5.909-25.045-18.596-27.493l-238.585-46.16c-12.664-2.447-25.045 5.909-27.516 18.573-2.448 12.687 5.931 25.068 18.595 27.516" fill="#d5d5d5"/><path d="M1476.869 616.46l233.623 71.509c15.38 4.704 31.813-4.027 36.52-19.4l1.784-5.866c4.707-15.374-4.006-31.801-19.386-36.509l-233.623-71.505c-15.38-4.707-31.813 4.027-36.52 19.398l-1.784 5.868c-4.708 15.374 4.006 31.8 19.386 36.506" fill="#bbb"/><path d="M1467.931 614.384l244.624 74.867c12.348 3.772 25.542-3.228 29.337-15.573 3.766-12.348-3.24-25.548-15.588-29.32l-244.624-74.867c-12.348-3.786-25.542 3.226-29.337 15.574-3.766 12.348 3.24 25.533 15.588 29.32" fill="#d5d5d5"/><path d="M1508.227 571.595l-6.884 31.04c-4.054 18.24-21.654 30.12-40.087 27.066L788.914 518.488c-16.99-2.798-29.427-17.492-29.427-34.693v-22.44c0-16.067 6.996-31.4 19.35-41.654 19.987-16.588 52.773-50.04 85.586-110.453 45.195-83.233 170.23-88.652 216.452-3.906 28.344 51.985 68.154 96.761 118.234 128.333 64.35 40.56 158.487 74.572 281.357 96.225 19.433 3.415 32.036 22.428 27.761 41.695" fill="#86ace2"/><path d="M878.228 393.493c0 60.233 36.483 109.087 81.472 109.087 45.013 0 81.472-48.854 81.472-109.087 0-60.259-36.459-109.102-81.472-109.102-44.989 0-81.472 48.843-81.472 109.102" fill="#dfecfd"/><path d="M251.392 2038.529c-17.957 248.242 144.103 460.655 361.981 474.428 217.878 13.774 409.058-176.295 426.99-424.534 17.956-248.242-144.104-460.655-361.981-474.429-217.878-13.773-409.058 176.295-426.99 424.535" fill="#262654"/><path d="M1008.065 2041.411c-4.025-202.175-150.245-357.976-326.614-348-176.343 9.972-316.02 181.945-311.971 384.118 4.024 202.176 150.27 357.989 326.613 348.001 176.344-9.973 316.021-181.946 311.972-384.119" fill="#434395"/><path d="M532.615 2048.427c-7.633 105.546 58.417 195.678 147.53 201.306 89.112 5.64 167.55-75.36 175.181-180.895 7.632-105.546-58.417-195.679-147.53-201.318-89.112-5.628-167.55 75.36-175.181 180.907" fill="#d5d5d5"/><path d="M599.433 2052.65c-4.46 61.84 34.226 114.642 86.453 117.934 52.203 3.308 98.15-44.147 102.608-105.973 4.483-61.839-34.202-114.64-86.429-117.945-52.203-3.295-98.15 44.158-102.632 105.984" fill="#fff"/><path d="M1087.364 1973.744L220.7 1892.009c.05-.412.076-.812.101-1.224 24.902-264.04 239.12-459.787 478.44-437.214 239.322 22.573 413.15 254.92 388.25 518.96-.051.4-.102.8-.127 1.213" fill="#4e6bb9"/><path d="M837.527 1529.26c-190.214 11.84-335.72 183.655-335.024 389.32l-281.792-26.572c.024-.413.072-.812.096-1.227 24.899-264.039 239.1-459.788 478.441-437.213 75.155 7.093 143.874 34.893 202.004 77.853a331.929 331.929 0 00-63.725-2.16" fill="#5d80c8"/><path d="M1568.3 455.22c23.899-32.334 19.435-76.161-9.973-97.88-29.38-21.72-72.574-13.107-96.473 19.227-23.871 32.332-19.436 76.16 9.972 97.866 29.38 21.719 72.574 13.12 96.473-19.212" fill="#86ace2"/><path d="M1550.618 442.158c15.957-21.598 12.98-50.853-6.658-65.358-19.636-14.507-48.488-8.762-64.444 12.839-15.929 21.586-12.979 50.853 6.686 65.36 19.609 14.507 48.46 8.748 64.416-12.841" fill="#fff"/><path d="M699.423 319.084c-16.728-26.728-42.54-40.71-57.666-31.259-15.149 9.474-13.844 38.81 2.883 65.538 16.705 26.704 42.54 40.709 57.666 31.235 15.126-9.473 13.822-38.81-2.883-65.514" fill="#86ace2"/><path d="M687.968 327.036c-10.04-16.075-25.57-24.477-34.677-18.785-9.084 5.693-8.31 23.339 1.73 39.39 10.065 16.076 25.593 24.477 34.7 18.785 9.085-5.692 8.311-23.338-1.753-39.39M3114.11 290.353l.639 59.205-626.524 90.04.038-65.64 625.847-83.605" fill="#fff"/></svg>
